<svg width="24" height="24" viewBox="0 0 24 24" class="swords"
fill="none"  xmlns="http://www.w3.org/2000/svg" >
<g clip-path="url(#clip0_1376_19)">
<path d="M20.8594 0C20.9616 0.829042 21.0539 1.65883 21.1401 2.48969C21.1463 2.5494 21.1525 2.60912 21.1588 2.67064C21.1848 2.92107 21.2107 3.17151 21.2364 3.42196C21.2729 3.77725 21.3098 4.1325 21.3472 4.4877C21.377 4.77044 21.4061 5.05325 21.435 5.33608C21.4473 5.45566 21.4598 5.57522 21.4725 5.69475C21.4901 5.86068 21.507 6.02667 21.5237 6.19268C21.5291 6.24189 21.5345 6.2911 21.54 6.34179C21.5444 6.3869 21.5488 6.432 21.5534 6.47848C21.5574 6.51757 21.5615 6.55666 21.5656 6.59694C21.561 6.75268 21.5055 6.84991 21.4025 6.96397C21.3771 6.9872 21.3517 7.01043 21.3256 7.03436C21.297 7.06071 21.2685 7.08705 21.2391 7.1142C21.2086 7.14193 21.178 7.16967 21.1465 7.19824C21.1148 7.22737 21.0832 7.25649 21.0505 7.2865C20.9558 7.37355 20.8607 7.46024 20.7656 7.54688C20.7167 7.59171 20.6677 7.63657 20.6188 7.68146C20.5286 7.76411 20.4384 7.84669 20.3481 7.9292C20.1816 8.08189 20.0166 8.23627 19.8516 8.39062C19.5943 8.63121 19.3357 8.87014 19.0757 9.10785C18.7065 9.44583 18.3393 9.78607 17.9736 10.1279C17.7173 10.3675 17.4596 10.6055 17.2007 10.8422C16.8315 11.1802 16.4643 11.5204 16.0986 11.8623C15.8423 12.1019 15.5846 12.3398 15.3257 12.5766C14.9565 12.9146 14.5893 13.2548 14.2236 13.5967C13.9673 13.8363 13.7096 14.0742 13.4507 14.311C13.0815 14.649 12.7143 14.9892 12.3486 15.3311C12.0923 15.5706 11.8346 15.8086 11.5757 16.0453C11.2065 16.3833 10.8393 16.7236 10.4736 17.0654C10.2626 17.2627 10.051 17.4593 9.83789 17.6543C9.77136 17.7154 9.77136 17.7154 9.70349 17.7777C9.60045 17.872 9.49649 17.9653 9.39221 18.0582C9.33569 18.1091 9.27917 18.16 9.22266 18.2109C9.19576 18.2346 9.16886 18.2583 9.14115 18.2826C9.07578 18.3418 9.01409 18.405 8.95312 18.4688C8.93768 18.6137 8.93768 18.6137 9.03993 18.7084C9.0795 18.7458 9.11908 18.7831 9.15985 18.8216C9.20236 18.8626 9.24487 18.9036 9.28867 18.9458C9.35678 19.0107 9.42508 19.0755 9.49362 19.1399C9.55961 19.2022 9.62488 19.2653 9.69012 19.3284C9.72965 19.3658 9.76917 19.4032 9.80989 19.4418C9.89062 19.5469 9.89062 19.5469 9.8844 19.634C9.83002 19.7683 9.75194 19.843 9.6491 19.945C9.60781 19.9863 9.56652 20.0275 9.52398 20.0701C9.47866 20.1147 9.43333 20.1593 9.388 20.2039C9.34179 20.2498 9.29562 20.2958 9.24948 20.3418C9.1281 20.4626 9.00631 20.583 8.88443 20.7033C8.76007 20.8263 8.63611 20.9496 8.51211 21.0729C8.26888 21.3146 8.02521 21.5559 7.78125 21.7969C7.6099 21.7247 7.50081 21.6218 7.37011 21.4908C7.34832 21.4691 7.32653 21.4473 7.30408 21.425C7.23124 21.3523 7.15874 21.2793 7.08623 21.2062C7.03403 21.154 6.98182 21.1018 6.92959 21.0496C6.7879 20.908 6.6465 20.766 6.50514 20.624C6.35736 20.4757 6.2093 20.3275 6.06128 20.1794C5.78104 19.8989 5.50103 19.6181 5.22111 19.3372C4.90241 19.0175 4.58345 18.698 4.26446 18.3786C3.6083 17.7214 2.95248 17.0639 2.29688 16.4062C2.37408 16.2427 2.46172 16.1363 2.5906 16.0081C2.63188 15.9669 2.67317 15.9256 2.71571 15.883C2.76078 15.8384 2.80587 15.7939 2.85095 15.7493C2.89708 15.7033 2.94319 15.6573 2.98928 15.6113C3.11036 15.4906 3.23173 15.3702 3.35316 15.2498C3.47713 15.1268 3.60083 15.0035 3.72455 14.8802C3.96715 14.6387 4.21004 14.3974 4.45312 14.1562C4.63354 14.3086 4.81095 14.4612 4.97736 14.629C5.01014 14.662 5.04292 14.6949 5.07669 14.7288C5.10971 14.7622 5.14273 14.7957 5.17676 14.8301C5.21105 14.8646 5.24534 14.8991 5.28067 14.9346C5.36431 15.0188 5.44783 15.1031 5.53125 15.1875C5.86362 14.916 6.16157 14.6102 6.4641 14.3065C6.52579 14.2448 6.58749 14.1831 6.64921 14.1213C6.81834 13.9521 6.98734 13.7828 7.1563 13.6134C7.3387 13.4306 7.52123 13.2479 7.70375 13.0653C8.01983 12.7489 8.33583 12.4324 8.65178 12.1159C9.10864 11.6583 9.56568 11.2008 10.0228 10.7434C10.7645 10.0011 11.5061 9.25879 12.2476 8.5164C12.2698 8.49419 12.292 8.47199 12.3148 8.44911C12.8327 7.93064 13.3505 7.41213 13.8683 6.89358C13.9018 6.86008 13.9018 6.86008 13.9359 6.82591C14.0484 6.71329 14.1608 6.60067 14.2733 6.48805C14.2955 6.46579 14.3177 6.44353 14.3406 6.4206C14.3855 6.37567 14.4304 6.33074 14.4752 6.28581C15.2366 5.52331 15.9982 4.76099 16.7599 3.99883C17.2161 3.5423 17.6722 3.08561 18.1282 2.62873C18.4401 2.31609 18.7523 2.00363 19.0646 1.69129C19.245 1.51085 19.4254 1.33032 19.6055 1.14959C19.7701 0.984426 19.9349 0.819474 20.1 0.654695C20.1599 0.594789 20.2197 0.534802 20.2795 0.474729C20.3602 0.393607 20.4411 0.312773 20.5222 0.232011C20.5458 0.208176 20.5694 0.184342 20.5936 0.159785C20.7549 0 20.7549 0 20.8594 0Z" fill="#3FDE77"/>
<path d="M3.14081 0C3.27181 0.0598405 3.36819 0.121852 3.4701 0.223356C3.49696 0.249879 3.52381 0.276403 3.55148 0.303729C3.59503 0.347448 3.59503 0.347448 3.63946 0.39205C3.67066 0.423008 3.70186 0.453965 3.73401 0.48586C3.83871 0.58985 3.94306 0.694173 4.04742 0.7985C4.12232 0.873043 4.19724 0.947566 4.27217 1.02207C4.47577 1.22464 4.67906 1.42752 4.88226 1.63048C5.0091 1.75715 5.136 1.88376 5.26293 2.01035C5.61425 2.36076 5.96551 2.71124 6.31644 3.06204C6.35011 3.0957 6.35011 3.0957 6.38446 3.13003C6.42997 3.17552 6.47547 3.22101 6.52098 3.2665C6.55486 3.30037 6.55486 3.30037 6.58943 3.33492C6.61204 3.35753 6.63466 3.38014 6.65796 3.40343C7.02491 3.77022 7.39241 4.13645 7.76016 4.50244C8.13759 4.87809 8.51457 5.25418 8.89112 5.6307C9.10261 5.84215 9.31428 6.05341 9.52641 6.26421C9.72573 6.4623 9.92448 6.66094 10.1228 6.86002C10.1959 6.93317 10.2691 7.00611 10.3426 7.07884C10.4425 7.1778 10.5417 7.27744 10.6407 7.3773C10.6702 7.40623 10.6998 7.43517 10.7302 7.46498C10.8098 7.5461 10.8098 7.5461 10.9221 7.6875C10.9022 7.8382 10.8541 7.91383 10.748 8.02065C10.721 8.04819 10.694 8.07573 10.6662 8.10411C10.6364 8.13375 10.6066 8.16339 10.5759 8.19394C10.5447 8.22558 10.5134 8.25723 10.4812 8.28984C10.3777 8.39442 10.2737 8.49847 10.1697 8.60248C10.0977 8.67482 10.0257 8.74718 9.95368 8.81956C9.80272 8.97115 9.65148 9.12246 9.50007 9.27359C9.3057 9.46769 9.11219 9.66263 8.91891 9.85781C8.77049 10.0074 8.62153 10.1565 8.47242 10.3055C8.40082 10.3771 8.32941 10.449 8.25819 10.5211C8.15876 10.6215 8.05862 10.7212 7.95825 10.8208C7.91401 10.8659 7.91401 10.8659 7.86887 10.912C7.78583 10.9935 7.78583 10.9935 7.64081 11.1094C7.45848 11.0884 7.37048 10.9994 7.23944 10.875C7.07732 10.7247 6.91353 10.5801 6.74139 10.4414C6.53164 10.2716 6.32672 10.0971 6.12323 9.91992C5.82795 9.66281 5.53031 9.40875 5.23089 9.15649C5.10538 9.05073 4.98001 8.94483 4.85467 8.83887C4.82972 8.81778 4.80476 8.79669 4.77905 8.77496C4.58955 8.61462 4.40124 8.45292 4.21307 8.29102C4.0227 8.12727 3.83103 7.96573 3.63592 7.80762C3.39131 7.60916 3.15352 7.40337 2.91642 7.19606C2.88811 7.17134 2.8598 7.14662 2.83063 7.12115C2.80568 7.09929 2.78073 7.07743 2.75503 7.0549C2.66966 6.97811 2.66966 6.97811 2.54884 6.91285C2.43768 6.79688 2.43768 6.79688 2.42334 6.70957C2.42634 6.5953 2.43736 6.48423 2.45113 6.37074C2.45536 6.32755 2.4596 6.28436 2.46397 6.23986C2.47837 6.09603 2.49456 5.95247 2.51074 5.80884C2.52125 5.70746 2.53164 5.60608 2.54193 5.50468C2.5695 5.23587 2.59857 4.96724 2.62795 4.69862C2.65679 4.43285 2.6843 4.16696 2.71188 3.90106C2.74973 3.53733 2.78805 3.17365 2.82705 2.81004C2.87398 2.37226 2.9198 1.93441 2.96303 1.49625C2.96739 1.45209 2.97176 1.40793 2.97625 1.36244C2.99652 1.15659 3.01659 0.950719 3.03641 0.744824C3.04344 0.672895 3.05047 0.600966 3.0575 0.529037C3.06054 0.49685 3.06357 0.464663 3.06669 0.431501C3.08122 0.28397 3.09916 0.142513 3.14081 0Z" fill="#3FDE77"/>
<path d="M16.5469 13.4062C16.6961 13.4721 16.7959 13.5501 16.9106 13.6656C16.9443 13.6993 16.9781 13.7331 17.0129 13.7679C17.0488 13.8043 17.0848 13.8408 17.1218 13.8783C17.159 13.9156 17.1962 13.9529 17.2345 13.9914C17.3532 14.1106 17.4715 14.2301 17.5898 14.3496C17.6703 14.4305 17.7507 14.5114 17.8312 14.5922C18.0283 14.7904 18.2252 14.9889 18.4219 15.1875C18.6023 15.0352 18.7797 14.8825 18.9461 14.7147C18.9789 14.6818 19.0117 14.6489 19.0454 14.6149C19.0785 14.5815 19.1115 14.5481 19.1455 14.5137C19.1969 14.4619 19.1969 14.4619 19.2494 14.4091C19.3331 14.3249 19.4166 14.2406 19.5 14.1562C19.7718 14.3819 20.0214 14.6246 20.2703 14.8751C20.3321 14.937 20.3321 14.937 20.395 15C20.5255 15.1308 20.6558 15.2617 20.7861 15.3926C20.8749 15.4817 20.9638 15.5707 21.0526 15.6597C21.2696 15.8772 21.4864 16.0948 21.7031 16.3125C21.6309 16.4838 21.528 16.5929 21.397 16.7236C21.3753 16.7454 21.3536 16.7672 21.3312 16.7897C21.2585 16.8625 21.1855 16.935 21.1125 17.0075C21.0603 17.0597 21.0081 17.1119 20.9559 17.1642C20.8142 17.3059 20.6723 17.4473 20.5303 17.5886C20.3819 17.7364 20.2338 17.8844 20.0857 18.0325C19.8051 18.3127 19.5243 18.5927 19.2435 18.8726C18.9237 19.1913 18.6043 19.5103 18.2848 19.8293C17.6277 20.4854 16.9702 21.1413 16.3125 21.7969C16.1521 21.7209 16.0449 21.6356 15.9179 21.5104C15.8775 21.4707 15.837 21.4309 15.7952 21.39C15.752 21.347 15.7087 21.304 15.6641 21.2596C15.6191 21.215 15.5741 21.1704 15.529 21.1258C15.4349 21.0324 15.3409 20.9389 15.2471 20.8452C15.1267 20.725 15.0056 20.6057 14.8842 20.4865C14.7911 20.3947 14.6984 20.3024 14.6059 20.2099C14.5398 20.1441 14.4732 20.0789 14.4066 20.0137C14.3469 19.9536 14.3469 19.9536 14.2861 19.8923C14.2508 19.8572 14.2154 19.8221 14.179 19.7859C14.1094 19.6875 14.1094 19.6875 14.1161 19.5877C14.1756 19.4578 14.2642 19.3764 14.3659 19.2766C14.4081 19.2349 14.4502 19.1932 14.4936 19.1503C14.5379 19.1071 14.5823 19.064 14.6279 19.0195C14.6729 18.9753 14.7179 18.9309 14.7628 18.8866C14.8728 18.7782 14.9831 18.6702 15.0938 18.5625C14.8829 18.3098 14.6596 18.0753 14.4261 17.8434C14.3901 17.8075 14.3541 17.7715 14.317 17.7345C14.203 17.6207 14.0888 17.5071 13.9746 17.3936C13.8968 17.316 13.8191 17.2385 13.7413 17.1609C13.5516 16.9717 13.3618 16.7827 13.1719 16.5938C13.2425 16.4441 13.3083 16.3577 13.4363 16.2517C13.6315 16.0864 13.8181 15.914 14.0039 15.7383C14.273 15.4849 14.5437 15.2336 14.8165 14.9843C14.961 14.8522 15.1051 14.7197 15.249 14.5869C15.2739 14.564 15.2987 14.5411 15.3243 14.5175C15.4659 14.3867 15.6069 14.2555 15.7474 14.1237C15.7786 14.0945 15.8098 14.0653 15.8419 14.0352C15.9019 13.9788 15.9619 13.9224 16.0219 13.866C16.1922 13.7063 16.3661 13.5539 16.5469 13.4062Z" fill="#3FDE77"/>
<path d="M21.1406 19.0312C21.4566 19.2916 21.7452 19.5786 22.0356 19.8666C22.0623 19.893 22.0889 19.9194 22.1164 19.9466C22.2569 20.0858 22.3973 20.2253 22.5375 20.3648C22.6535 20.4802 22.7698 20.5952 22.8864 20.7099C23.0277 20.8489 23.1684 20.9885 23.3088 21.1285C23.3623 21.1816 23.4159 21.2346 23.4698 21.2874C23.5448 21.3608 23.619 21.435 23.693 21.5094C23.7354 21.5515 23.7779 21.5935 23.8216 21.6368C23.9063 21.75 23.9063 21.75 23.9081 21.8456C23.8437 21.9671 23.7645 22.051 23.6677 22.1489C23.6067 22.211 23.6067 22.211 23.5444 22.2744C23.4997 22.3192 23.455 22.3639 23.4102 22.4086C23.3645 22.4547 23.3188 22.5008 23.273 22.5469C23.1773 22.6433 23.0812 22.7394 22.9849 22.8354C22.8615 22.9586 22.7389 23.0826 22.6166 23.2068C22.5225 23.3022 22.4278 23.397 22.333 23.4916C22.2875 23.5371 22.2423 23.5828 22.1972 23.6287C22.1343 23.6927 22.0705 23.7559 22.0067 23.819C21.9707 23.8551 21.9346 23.8913 21.8974 23.9286C21.7969 24 21.7969 24 21.7067 24.0035C21.5615 23.9283 21.456 23.8181 21.3428 23.7025C21.3167 23.6765 21.2906 23.6504 21.2638 23.6235C21.1777 23.5374 21.0922 23.4507 21.0066 23.3641C20.947 23.3042 20.8874 23.2444 20.8277 23.1846C20.6708 23.0271 20.5143 22.8693 20.3579 22.7113C20.1982 22.5502 20.0382 22.3895 19.8781 22.2287C19.5642 21.9133 19.2507 21.5974 18.9375 21.2812C19.1661 21.0056 19.4128 20.753 19.6666 20.5007C19.7089 20.4585 19.7511 20.4163 19.7947 20.3728C19.906 20.2617 20.0175 20.1507 20.129 20.0397C20.2431 19.926 20.3572 19.8122 20.4712 19.6984C20.6942 19.4759 20.9174 19.2535 21.1406 19.0312Z" fill="#3FDE77"/>
<path d="M2.8125 19.0312C3.0843 19.2569 3.33388 19.4996 3.58282 19.7501C3.62398 19.7913 3.66513 19.8326 3.70753 19.875C3.83801 20.0058 3.96832 20.1367 4.09863 20.2676C4.18745 20.3567 4.27629 20.4457 4.36514 20.5347C4.58209 20.7522 4.79891 20.9698 5.01562 21.1875C4.94059 21.3738 4.81071 21.4988 4.67027 21.6373C4.64465 21.6629 4.61903 21.6885 4.59264 21.7149C4.50815 21.7993 4.42333 21.8834 4.3385 21.9675C4.27976 22.0261 4.22104 22.0847 4.16234 22.1433C4.00796 22.2973 3.85331 22.451 3.69859 22.6047C3.54069 22.7617 3.38306 22.9189 3.2254 23.076C2.91615 23.3843 2.60661 23.6922 2.29688 24C2.13129 23.9294 2.02518 23.8334 1.89876 23.7063C1.85748 23.665 1.8162 23.6237 1.77367 23.5812C1.72907 23.5361 1.68448 23.491 1.63989 23.4459C1.59394 23.3998 1.54797 23.3537 1.50197 23.3076C1.38124 23.1865 1.26079 23.0651 1.1404 22.9437C1.0174 22.8197 0.894125 22.696 0.770874 22.5723C0.529279 22.3297 0.287984 22.0868 0.046875 21.8438C0.310283 21.5222 0.604835 21.233 0.899048 20.9401C0.954356 20.8849 1.00965 20.8297 1.06494 20.7744C1.20956 20.63 1.35431 20.4857 1.4991 20.3414C1.64719 20.1938 1.79515 20.0461 1.94312 19.8983C2.23278 19.6092 2.52259 19.3202 2.8125 19.0312Z" fill="#3FDE77" hover="fill:white"/>
</g>
<defs>
<clipPath id="clip0_1376_19">
<rect width="24" height="24" fill="white"/>
</clipPath>
</defs>
</svg>
