<svg width="32" height="32" viewBox="0 0 32 32" fill="none" xmlns="http://www.w3.org/2000/svg">
<path d="M3.44989 7.70988H7.88989C7.7692 6.92903 7.70902 6.14001 7.70989 5.34988V5.05988L8.42989 4.63988H1.68989C1.67515 5.58235 2.03477 6.49219 2.68989 7.16988C2.9177 7.38335 3.17335 7.56499 3.44989 7.70988ZM9.29989 12.2899H5.78989C5.09099 12.3008 4.40142 12.1284 3.78989 11.7899H2.20989C2.20989 12.26 2.30249 12.7255 2.4824 13.1599C2.66231 13.5942 2.92601 13.9889 3.25845 14.3213C3.92983 14.9927 4.84041 15.3699 5.78989 15.3699H11.2299C10.462 14.4268 9.81369 13.3922 9.29989 12.2899ZM24.2899 5.34988C24.2908 6.14001 24.2306 6.92903 24.1099 7.70988H28.5499C28.8094 7.55817 29.0481 7.37328 29.2599 7.15988C29.915 6.48219 30.2746 5.57235 30.2599 4.62988H23.5699L24.2899 5.04988V5.34988ZM8.48989 8.20988C8.48989 8.20988 8.48989 8.26988 8.48989 8.29988C8.49474 8.27008 8.49474 8.23969 8.48989 8.20988ZM9.52989 11.5899C9.55222 11.6582 9.57895 11.725 9.60989 11.7899L9.66989 11.9199V11.7899L9.52989 11.5899ZM2.20989 8.20988C2.20989 9.15936 2.58707 10.0699 3.25845 10.7413C3.92983 11.4127 4.84041 11.7899 5.78989 11.7899H9.06989C8.56371 10.6464 8.2042 9.44355 7.99989 8.20988H2.20989ZM22.9299 11.7899H26.2099C27.1594 11.7899 28.07 11.4127 28.7413 10.7413C29.4127 10.0699 29.7899 9.15936 29.7899 8.20988H23.9999C23.7956 9.44355 23.4361 10.6464 22.9299 11.7899ZM26.2099 12.2899H22.6999C22.1861 13.3922 21.5378 14.4268 20.7699 15.3699H26.2099C27.1594 15.3699 28.07 14.9927 28.7413 14.3213C29.4127 13.6499 29.7899 12.7394 29.7899 11.7899H28.1599C27.5631 12.1201 26.8919 12.2922 26.2099 12.2899Z" fill="#45F983"/>
<path d="M9.66996 11.9195V11.9695C10.6586 14.0743 12.1077 15.93 13.91 17.3995C14.2303 17.6633 14.5641 17.9103 14.91 18.1395C15.25 18.3695 15.6 18.5995 15.91 18.8095C16.27 18.5995 16.62 18.3695 16.91 18.1395C17.2559 17.9103 17.5896 17.6633 17.91 17.3995C19.3758 16.2124 20.6098 14.7648 21.55 13.1295C21.77 12.7495 21.97 12.3495 22.16 11.9495L22.22 11.8195V11.7395C22.5226 11.0652 22.7765 10.3701 22.98 9.65953V9.56953C23.1 9.14953 23.19 8.72953 23.27 8.29953C23.4473 7.35984 23.5377 6.4058 23.54 5.44953L17 1.40953C16.7057 1.23728 16.3709 1.14648 16.03 1.14648C15.689 1.14648 15.3542 1.23728 15.06 1.40953L8.20996 5.34953C8.21085 7.61989 8.70921 9.86247 9.66996 11.9195Z" fill="#45F983"/>
<path d="M16.2504 19.2793L16.0004 19.4293L15.7504 19.2793C15.1207 18.9168 14.516 18.5126 13.9404 18.0693V21.4093H18.0604V18.0693C17.4847 18.5126 16.88 18.9168 16.2504 19.2793ZM22.6204 26.7793H9.38035C8.97895 26.7793 8.59384 26.9381 8.30907 27.221C8.0243 27.5039 7.86299 27.8879 7.86035 28.2893V30.2893C7.86034 30.3664 7.87567 30.4426 7.90544 30.5136C7.93521 30.5847 7.97883 30.649 8.03375 30.703C8.08867 30.757 8.1538 30.7995 8.22532 30.8281C8.29685 30.8566 8.37335 30.8707 8.45035 30.8693H23.5504C23.6274 30.8707 23.7039 30.8566 23.7754 30.8281C23.8469 30.7995 23.912 30.757 23.967 30.703C24.0219 30.649 24.0655 30.5847 24.0953 30.5136C24.125 30.4426 24.1404 30.3664 24.1404 30.2893V28.2893C24.1377 27.8879 23.9764 27.5039 23.6916 27.221C23.4069 26.9381 23.0218 26.7793 22.6204 26.7793ZM11.9104 23.9993C11.7112 23.9993 11.514 24.0387 11.3302 24.1152C11.1463 24.1917 10.9794 24.3039 10.8391 24.4451C10.6987 24.5864 10.5877 24.7541 10.5124 24.9384C10.4371 25.1228 10.399 25.3202 10.4004 25.5193V26.2293C10.3955 26.2591 10.3955 26.2895 10.4004 26.3193H21.5904C21.5952 26.2895 21.5952 26.2591 21.5904 26.2293V25.5193C21.5917 25.321 21.5539 25.1244 21.4792 24.9407C21.4046 24.757 21.2945 24.5898 21.1552 24.4487C21.0159 24.3075 20.8501 24.1952 20.6674 24.1181C20.4847 24.041 20.2886 24.0006 20.0904 23.9993H11.9104ZM12.2404 23.1993V23.3693C12.2355 23.3991 12.2355 23.4295 12.2404 23.4593H19.7404C19.7452 23.4295 19.7452 23.3991 19.7404 23.3693V23.1993C19.7404 22.7989 19.5813 22.4148 19.2981 22.1316C19.0149 21.8484 18.6308 21.6893 18.2304 21.6893H13.7304C13.3334 21.6946 12.9544 21.856 12.6755 22.1386C12.3967 22.4212 12.2403 22.8023 12.2404 23.1993Z" fill="#45F983"/>
</svg>
