<svg width="64" height="64" viewBox="0 0 64 64" fill="none" xmlns="http://www.w3.org/2000/svg">
<path d="M27.4686 37.0142C25.9559 37.5091 24.3295 37.539 22.7996 37.1002L11.2566 33.8342C9.21542 33.2555 7.48767 31.8898 6.45342 30.0373C5.41917 28.1849 5.16313 25.9974 5.74161 23.9562L9.01261 12.4102C9.59232 10.3699 10.9585 8.64337 12.8109 7.61012C14.6632 6.57688 16.85 6.32152 18.8906 6.90019L30.4366 10.1712C31.4474 10.4576 32.3919 10.9403 33.2161 11.5917C34.0404 12.2431 34.7282 13.0505 35.2404 13.9678C35.7526 14.885 36.0792 15.8942 36.2014 16.9377C36.3236 17.9811 36.239 19.0384 35.9526 20.0492L32.6806 31.5902" stroke="#45F983" stroke-width="3" stroke-linejoin="round"/>
<path d="M18.0278 20.3057C19.8802 20.3057 21.3818 18.804 21.3818 16.9517C21.3818 15.0993 19.8802 13.5977 18.0278 13.5977C16.1755 13.5977 14.6738 15.0993 14.6738 16.9517C14.6738 18.804 16.1755 20.3057 18.0278 20.3057Z" fill="#45F983"/>
<path d="M23.6655 30.4023C25.5179 30.4023 27.0195 28.9007 27.0195 27.0483C27.0195 25.196 25.5179 23.6943 23.6655 23.6943C21.8132 23.6943 20.3115 25.196 20.3115 27.0483C20.3115 28.9007 21.8132 30.4023 23.6655 30.4023Z" fill="#45F983"/>
<path d="M45.8049 28.9307L33.9284 30.6481C29.5556 31.2804 26.5233 35.3378 27.1556 39.7106L28.873 51.5871C29.5053 55.9599 33.5627 58.9922 37.9355 58.3598L49.812 56.6425C54.1848 56.0102 57.2171 51.9527 56.5848 47.5799L54.8674 35.7035C54.2351 31.3307 50.1777 28.2984 45.8049 28.9307Z" stroke="#45F983" stroke-width="3" stroke-linejoin="round"/>
<path d="M36.0112 47.8467C37.8636 47.8467 39.3652 46.345 39.3652 44.4927C39.3652 42.6403 37.8636 41.1387 36.0112 41.1387C34.1589 41.1387 32.6572 42.6403 32.6572 44.4927C32.6572 46.345 34.1589 47.8467 36.0112 47.8467Z" fill="#45F983"/>
<path d="M34.8979 40.1504C36.7503 40.1504 38.2519 38.6487 38.2519 36.7964C38.2519 34.944 36.7503 33.4424 34.8979 33.4424C33.0456 33.4424 31.5439 34.944 31.5439 36.7964C31.5439 38.6487 33.0456 40.1504 34.8979 40.1504Z" fill="#45F983"/>
<path d="M37.1235 55.5439C38.9759 55.5439 40.4775 54.0423 40.4775 52.1899C40.4775 50.3376 38.9759 48.8359 37.1235 48.8359C35.2712 48.8359 33.7695 50.3376 33.7695 52.1899C33.7695 54.0423 35.2712 55.5439 37.1235 55.5439Z" fill="#45F983"/>
<path d="M47.728 46.1533C49.5804 46.1533 51.082 44.6517 51.082 42.7993C51.082 40.9469 49.5804 39.4453 47.728 39.4453C45.8757 39.4453 44.374 40.9469 44.374 42.7993C44.374 44.6517 45.8757 46.1533 47.728 46.1533Z" fill="#45F983"/>
<path d="M46.6147 38.4551C48.4671 38.4551 49.9687 36.9534 49.9687 35.1011C49.9687 33.2487 48.4671 31.7471 46.6147 31.7471C44.7624 31.7471 43.2607 33.2487 43.2607 35.1011C43.2607 36.9534 44.7624 38.4551 46.6147 38.4551Z" fill="#45F983"/>
<path d="M48.8403 53.8496C50.6927 53.8496 52.1943 52.348 52.1943 50.4956C52.1943 48.6432 50.6927 47.1416 48.8403 47.1416C46.988 47.1416 45.4863 48.6432 45.4863 50.4956C45.4863 52.348 46.988 53.8496 48.8403 53.8496Z" fill="#45F983"/>
</svg>
