<svg width="24" height="24" viewBox="0 0 24 24" fill="none" xmlns="http://www.w3.org/2000/svg">
<path fill-rule="evenodd" clip-rule="evenodd" d="M8.50977 5.84974C8.49282 5.84953 8.47587 5.85018 8.45898 5.85169C8.4192 5.85415 8.37986 5.86137 8.3418 5.87317L5.34375 6.87708C5.25085 6.9069 5.1687 6.96325 5.10742 7.03919C5.10742 7.03919 4.81156 7.42227 4.42188 8.23646C4.03219 9.05064 3.52665 10.3302 3.01953 12.2228C2.00065 16.0253 2 19.3536 2 19.3536C2.00105 19.4252 2.01747 19.4958 2.04813 19.5605C2.07879 19.6251 2.12299 19.6825 2.17773 19.7286C2.17773 19.7286 2.47309 19.981 2.92969 20.0919C3.38628 20.2028 4.04439 20.1816 4.74609 19.7814C6.80763 18.6056 10.0618 16.8497 12.0039 16.8497C13.9581 16.8497 17.1917 18.6041 19.252 19.7814C19.947 20.1785 20.6041 20.2009 21.0605 20.0919C21.517 19.983 21.8145 19.7365 21.8145 19.7365C21.8713 19.69 21.9172 19.6317 21.9489 19.5655C21.9806 19.4993 21.9974 19.427 21.998 19.3536C21.998 19.3536 21.9974 16.0253 20.9785 12.2228C20.4714 10.3302 19.9659 9.05064 19.5762 8.23646C19.1865 7.42228 18.8906 7.03919 18.8906 7.03919C18.8315 6.96448 18.7522 6.90824 18.6621 6.87708L15.6562 5.87318C15.5895 5.85192 15.519 5.84493 15.4493 5.85267C15.3797 5.86041 15.3124 5.8827 15.252 5.9181C15.252 5.9181 13.5624 6.84779 12.0039 6.84779C10.4454 6.84779 8.74805 5.9181 8.74805 5.9181C8.67562 5.87567 8.59367 5.85216 8.50977 5.84974ZM12 8.50403C12.1326 8.50403 12.2598 8.55671 12.3536 8.65048C12.4473 8.74425 12.5 8.87143 12.5 9.00403C12.5 9.13664 12.4473 9.26382 12.3536 9.35759C12.2598 9.45136 12.1326 9.50403 12 9.50403C11.8674 9.50403 11.7402 9.45136 11.6464 9.35759C11.5527 9.26382 11.5 9.13664 11.5 9.00403C11.5 8.93837 11.5129 8.87336 11.5381 8.81269C11.5632 8.75203 11.6 8.69691 11.6464 8.65048C11.6929 8.60405 11.748 8.56722 11.8087 8.54209C11.8693 8.51697 11.9343 8.50403 12 8.50403ZM6.99805 9.50403C8.09669 9.50403 8.99805 10.4073 8.99805 11.506C8.99805 12.6046 8.09669 13.506 6.99805 13.506C5.8994 13.506 4.99805 12.6046 4.99805 11.506C4.99805 10.4073 5.8994 9.50403 6.99805 9.50403ZM17 9.50403C17.1326 9.50403 17.2598 9.55671 17.3536 9.65048C17.4473 9.74425 17.5 9.87143 17.5 10.004C17.5 10.1366 17.4473 10.2638 17.3536 10.3576C17.2598 10.4514 17.1326 10.504 17 10.504C16.9343 10.504 16.8693 10.4911 16.8087 10.466C16.748 10.4408 16.6929 10.404 16.6464 10.3576C16.6 10.3112 16.5632 10.256 16.5381 10.1954C16.5129 10.1347 16.5 10.0697 16.5 10.004C16.5 9.87143 16.5527 9.74425 16.6464 9.65048C16.7402 9.55671 16.8674 9.50403 17 9.50403ZM15.5 11.004C15.6326 11.004 15.7598 11.0567 15.8536 11.1505C15.9473 11.2442 16 11.3714 16 11.504C16 11.6366 15.9473 11.7638 15.8536 11.8576C15.7598 11.9514 15.6326 12.004 15.5 12.004C15.3674 12.004 15.2402 11.9514 15.1464 11.8576C15.0527 11.7638 15 11.6366 15 11.504C15 11.3714 15.0527 11.2442 15.1464 11.1505C15.2402 11.0567 15.3674 11.004 15.5 11.004ZM18.5 11.004C18.6326 11.004 18.7598 11.0567 18.8536 11.1505C18.9473 11.2442 19 11.3714 19 11.504C19 11.6366 18.9473 11.7638 18.8536 11.8576C18.7598 11.9514 18.6326 12.004 18.5 12.004C18.4343 12.004 18.3693 11.9911 18.3087 11.966C18.248 11.9408 18.1929 11.904 18.1464 11.8576C18.1 11.8112 18.0632 11.756 18.0381 11.6954C18.0129 11.6347 18 11.5697 18 11.504C18 11.3714 18.0527 11.2442 18.1464 11.1505C18.2402 11.0567 18.3674 11.004 18.5 11.004ZM17 12.504C17.1326 12.504 17.2598 12.5567 17.3536 12.6505C17.4473 12.7442 17.5 12.8714 17.5 13.004C17.5 13.1366 17.4473 13.2638 17.3536 13.3576C17.2598 13.4514 17.1326 13.504 17 13.504C16.9343 13.504 16.8693 13.4911 16.8087 13.466C16.748 13.4408 16.6929 13.404 16.6464 13.3576C16.6 13.3112 16.5632 13.256 16.5381 13.1954C16.5129 13.1347 16.5 13.0697 16.5 13.004C16.5 12.8714 16.5527 12.7442 16.6464 12.6505C16.7402 12.5567 16.8674 12.504 17 12.504ZM9.49219 12.9962C9.55949 12.9949 9.62637 13.0072 9.68882 13.0323C9.75126 13.0575 9.80799 13.095 9.85559 13.1426C9.90319 13.1902 9.94069 13.2469 9.96584 13.3094C9.99099 13.3718 10.0033 13.4387 10.002 13.506V14.0079H10.4961C10.5653 14.0017 10.6349 14.01 10.7007 14.0322C10.7665 14.0544 10.827 14.0901 10.8782 14.1369C10.9295 14.1838 10.9704 14.2408 10.9984 14.3043C11.0264 14.3679 11.0409 14.4366 11.0409 14.506C11.0409 14.5754 11.0264 14.6441 10.9984 14.7076C10.9704 14.7712 10.9295 14.8282 10.8782 14.875C10.827 14.9219 10.7665 14.9576 10.7007 14.9798C10.6349 15.002 10.5653 15.0102 10.4961 15.004H10.002V15.506C10.0025 15.5722 9.98988 15.6379 9.96488 15.6993C9.93989 15.7606 9.903 15.8165 9.85634 15.8635C9.80968 15.9105 9.75417 15.9478 9.69301 15.9733C9.63185 15.9988 9.56625 16.0119 9.5 16.0119C9.43375 16.0119 9.36815 15.9988 9.30699 15.9733C9.24583 15.9478 9.19032 15.9105 9.14366 15.8635C9.097 15.8165 9.06011 15.7606 9.03512 15.6993C9.01012 15.6379 8.99753 15.5722 8.99805 15.506V15.004H8.49609C8.37034 14.9996 8.25089 14.9479 8.16156 14.8592C8.07224 14.7706 8.01962 14.6516 8.0142 14.5258C8.00878 14.4001 8.05095 14.277 8.13231 14.181C8.21366 14.085 8.32822 14.0232 8.45312 14.0079C8.46744 14.0073 8.48178 14.0073 8.49609 14.0079H8.99805V13.506C8.99676 13.44 9.00855 13.3744 9.03273 13.313C9.05692 13.2516 9.09302 13.1956 9.13895 13.1482C9.18489 13.1008 9.23975 13.063 9.30038 13.0369C9.361 13.0108 9.42619 12.997 9.49219 12.9962ZM15 13.004C15.8225 13.004 16.498 13.6796 16.498 14.5021C16.498 15.3246 15.8225 16.0001 15 16.0001C14.1775 16.0001 13.502 15.3246 13.502 14.5021C13.502 13.6796 14.1775 13.004 15 13.004Z" fill="#45F983"/>
<path fill-rule="evenodd" clip-rule="evenodd" d="M8.91797 3.84962C8.85588 3.84932 8.79429 3.86058 8.73633 3.88284L6.08984 4.88282C6.00262 4.91527 5.92619 4.97141 5.86914 5.04493C5.86914 5.04493 5.66075 5.36563 5.36133 5.97462L8.07227 5.06641L8.08984 5.06252C8.19051 5.0313 8.29521 5.01288 8.40039 5.00588L8.40625 5.00393C8.44404 5.00121 8.48164 4.99955 8.51953 5.00004H8.53514C8.76042 5.00654 8.98324 5.07167 9.17771 5.18558L9.15625 5.1719C9.15625 5.1719 10.7833 5.99808 12.0039 5.99808C13.2245 5.99808 14.8418 5.17386 14.8418 5.17386L14.8223 5.18557C15.1475 4.99518 15.5549 4.94818 15.914 5.06253L15.9258 5.06642L18.6387 5.97267C18.3396 5.36463 18.1309 5.04493 18.1309 5.04493C18.0738 4.97141 17.9974 4.91527 17.9102 4.88282L15.2637 3.88282C15.1635 3.84501 15.0538 3.84036 14.9508 3.86954C14.8478 3.89872 14.7569 3.9602 14.6914 4.04493C14.6914 4.04493 14.3324 4.50661 13.7949 4.97071C13.2574 5.43481 12.5557 5.84962 12 5.84962C11.4443 5.84962 10.7406 5.43481 10.2031 4.97071C9.66565 4.50661 9.30859 4.04493 9.30859 4.04493C9.2625 3.98495 9.20339 3.9362 9.13573 3.90237C9.06807 3.86854 8.99361 3.8505 8.91797 3.84962Z" fill="#45F983"/>
</svg>
