<svg width="24" height="24" viewBox="0 0 24 24" fill="none" xmlns="http://www.w3.org/2000/svg">
<path fill-rule="evenodd" clip-rule="evenodd" d="M5.46689 4.39207C5.75949 4.68526 5.75902 5.16013 5.46583 5.45273C3.78722 7.128 2.75 9.44218 2.75 12C2.75 14.5878 3.81163 16.9262 5.52503 18.6059C5.82082 18.8959 5.82554 19.3707 5.53557 19.6665C5.24561 19.9623 4.77076 19.967 4.47497 19.677C2.48564 17.7269 1.25 15.0071 1.25 12C1.25 9.02783 2.45721 6.33616 4.40623 4.39102C4.69941 4.09842 5.17429 4.09889 5.46689 4.39207ZM18.6164 4.46446C18.9122 4.17449 19.387 4.17921 19.677 4.475C21.5771 6.41326 22.75 9.07043 22.75 12C22.75 14.9645 21.5491 17.6499 19.609 19.5938C19.3164 19.887 18.8415 19.8875 18.5484 19.5949C18.2552 19.3023 18.2547 18.8274 18.5473 18.5342C20.2182 16.86 21.25 14.5512 21.25 12C21.25 9.47873 20.2422 7.1943 18.6059 5.52507C18.3159 5.22928 18.3206 4.75443 18.6164 4.46446Z" fill="#B2F2C8"/>
<path fill-rule="evenodd" clip-rule="evenodd" d="M8.30923 7.48754C8.59226 7.78998 8.57652 8.26459 8.27408 8.54762C7.32517 9.43561 6.75 10.6502 6.75 11.9822C6.75 13.3297 7.33869 14.5572 8.30756 15.4478C8.61251 15.7282 8.63248 16.2026 8.35216 16.5076C8.07185 16.8125 7.59739 16.8325 7.29244 16.5522C6.03967 15.4006 5.25 13.7824 5.25 11.9822C5.25 10.203 6.02148 8.60125 7.24916 7.45239C7.5516 7.16936 8.02621 7.1851 8.30923 7.48754ZM15.7429 7.52556C16.0292 7.22623 16.5039 7.21568 16.8033 7.50199C18.0005 8.64711 18.75 10.2286 18.75 11.9822C18.75 13.7568 17.9825 15.3548 16.7604 16.503C16.4586 16.7866 15.9839 16.7718 15.7003 16.47C15.4167 16.1681 15.4315 15.6935 15.7333 15.4098C16.6778 14.5225 17.25 13.3107 17.25 11.9822C17.25 10.6691 16.6911 9.47043 15.7664 8.58596C15.4671 8.29965 15.4566 7.8249 15.7429 7.52556Z" fill="#B2F2C8"/>
<path fill-rule="evenodd" clip-rule="evenodd" d="M12.5922 8.88806C12.6098 8.89769 12.6274 8.90732 12.645 8.91696C12.8855 9.0486 13.124 9.18599 13.3391 9.32196C13.5841 9.47682 13.8445 9.65861 14.1002 9.84633C14.1155 9.85757 14.1308 9.86878 14.146 9.87997C14.5543 10.1796 14.9365 10.46 15.2067 10.7433C15.5201 11.0718 15.75 11.4706 15.75 11.9998C15.75 12.5289 15.5201 12.9278 15.2067 13.2562C14.9365 13.5395 14.5543 13.82 14.146 14.1196C14.1308 14.1308 14.1155 14.142 14.1002 14.1532C13.8445 14.3409 13.5841 14.5227 13.3391 14.6776C13.124 14.8135 12.8855 14.951 12.645 15.0826C12.6274 15.0922 12.6098 15.1019 12.5922 15.1115C12.1916 15.3309 11.8024 15.5441 11.4602 15.6547C11.0513 15.7869 10.5783 15.8161 10.1238 15.509C9.69566 15.2198 9.52038 14.7916 9.4325 14.3834C9.35232 14.011 9.32201 13.5384 9.28853 13.0164C9.28742 12.9991 9.28631 12.9818 9.28519 12.9645C9.26397 12.6342 9.25 12.3029 9.25 11.9998C9.25 11.6967 9.26397 11.3653 9.28519 11.0351C9.28631 11.0177 9.28742 11.0004 9.28853 10.9831C9.32201 10.4611 9.35233 9.98851 9.4325 9.61614C9.52038 9.20798 9.69566 8.77979 10.1238 8.49052C10.5783 8.18349 11.0513 8.21265 11.4602 8.34485C11.8024 8.45548 12.1916 8.66865 12.5922 8.88806ZM10.951 9.75826C10.9639 9.76149 10.9797 9.76594 10.9987 9.7721C11.1886 9.83348 11.4504 9.9731 11.9249 10.2328C12.148 10.3549 12.3575 10.476 12.5377 10.59C12.7435 10.72 12.9736 10.88 13.2125 11.0554C13.6829 11.4008 13.9539 11.6032 14.1214 11.7788C14.2506 11.9141 14.2503 11.9626 14.25 11.9957C14.25 11.9971 14.25 11.9984 14.25 11.9998C14.25 12.0011 14.25 12.0024 14.25 12.0038C14.2503 12.0369 14.2506 12.0854 14.1214 12.2208C13.9539 12.3964 13.6829 12.5988 13.2125 12.9441C12.9736 13.1195 12.7435 13.2796 12.5377 13.4096C12.3575 13.5235 12.148 13.6446 11.9249 13.7668C11.4504 14.0264 11.1886 14.1661 10.9987 14.2274C10.9797 14.2336 10.9639 14.2381 10.951 14.2413C10.9379 14.2126 10.9187 14.1597 10.8989 14.0677C10.8451 13.8179 10.8201 13.4593 10.7821 12.8683C10.7621 12.5573 10.75 12.2602 10.75 11.9998C10.75 11.7394 10.7621 11.4422 10.7821 11.1312C10.8201 10.5403 10.8451 10.1817 10.8989 9.93187C10.9187 9.83982 10.9379 9.78693 10.951 9.75826Z" fill="#45F983"/>
</svg>
