<svg width="24" height="24" viewBox="0 0 24 24" fill="#3fde77" 
xmlns="http://www.w3.org/2000/svg">
<path d="M22.7039 5.16001V1.77601C22.7039 1.51201 22.4879 1.29601 22.2239 1.29601H18.8399C18.7199 1.29601 18.5999 1.34401 18.5039 1.44001L11.9999 7.92001L5.5199 1.44001C5.4239 1.34401 5.3039 1.29601 5.1839 1.29601H1.7759C1.5119 1.29601 1.2959 1.51201 1.2959 1.77601V5.16001C1.2959 5.28001 1.3439 5.40001 1.4399 5.49601L7.9199 11.976L6.2639 13.632L5.5919 12.96C5.4959 12.864 5.3759 12.816 5.2559 12.816H3.2159C2.9519 12.816 2.7359 13.032 2.7359 13.296C2.7359 13.56 2.9519 13.776 3.2159 13.776H5.0639L6.1199 14.832L4.7759 16.2C4.7519 16.224 4.7279 16.272 4.7039 16.296L3.2639 18.864C2.7599 18.864 2.2799 19.056 1.8959 19.416C1.1519 20.16 1.1519 21.384 1.8959 22.128C2.2559 22.512 2.7599 22.68 3.2639 22.68C3.7439 22.68 4.2479 22.488 4.6319 22.128C4.9919 21.768 5.1839 21.288 5.1839 20.76L7.7519 19.32C7.7999 19.296 7.8239 19.272 7.8479 19.248L9.2159 17.88L9.3839 18.048L10.2719 18.936V20.784C10.2719 21.048 10.4879 21.264 10.7519 21.264C11.0159 21.264 11.2319 21.048 11.2319 20.784V18.744C11.2319 18.624 11.1839 18.504 11.0879 18.408L10.4159 17.736L11.9999 16.08L13.6559 17.736L12.9839 18.408C12.8879 18.504 12.8399 18.624 12.8399 18.744V20.784C12.8399 21.048 13.0559 21.264 13.3199 21.264C13.5839 21.264 13.7999 21.048 13.7999 20.784V18.936L14.8559 17.88L16.2239 19.248C16.2479 19.272 16.2959 19.296 16.3199 19.32L18.8879 20.76C18.8879 21.264 19.0799 21.744 19.4399 22.128C19.8239 22.512 20.3039 22.68 20.8079 22.68C21.3119 22.68 21.7919 22.488 22.1759 22.128C22.9199 21.384 22.9199 20.16 22.1759 19.416C21.8159 19.056 21.3359 18.864 20.8079 18.864L19.3679 16.296C19.3439 16.248 19.3199 16.224 19.2959 16.2L17.9519 14.832L19.0079 13.776H20.8559C21.1199 13.776 21.3359 13.56 21.3359 13.296C21.3359 13.032 21.1199 12.816 20.8559 12.816H18.8159C18.6959 12.816 18.5759 12.864 18.4799 12.96L17.8079 13.632L16.0799 12L22.5599 5.52001C22.6559 5.42401 22.7039 5.30401 22.7039 5.16001ZM19.0319 2.25601H21.0719L13.7039 9.624L12.6959 8.61601L19.0319 2.25601ZM8.6159 12.672L9.6239 13.68L7.9679 15.36L6.9599 14.328L8.6159 12.672ZM3.8879 21.456C3.5039 21.84 2.9039 21.84 2.5199 21.456C2.1359 21.072 2.1359 20.472 2.5199 20.088C2.7119 19.896 2.9519 19.8 3.1919 19.8C3.4559 19.8 3.6959 19.896 3.8639 20.088C4.0559 20.28 4.1519 20.52 4.1519 20.76C4.1519 21 4.0799 21.288 3.8879 21.456ZM4.8719 19.824C4.7759 19.68 4.6799 19.536 4.5599 19.416C4.4399 19.296 4.3199 19.2 4.1759 19.128L5.1839 17.328L6.6719 18.816L4.8719 19.824ZM7.4639 18.24L5.7599 16.536L6.7679 15.528L8.4719 17.232L7.4639 18.24ZM9.6719 17.04L8.6399 16.032L10.2959 14.376L11.3039 15.384L9.6719 17.04ZM14.3279 17.04L2.2559 4.96801V2.92801L15.3599 16.032L14.3279 17.04ZM20.7839 19.824C21.0479 19.824 21.2879 19.92 21.4559 20.112C21.8399 20.496 21.8399 21.096 21.4559 21.48C21.0719 21.864 20.4719 21.864 20.0879 21.48C19.8959 21.288 19.7999 21.048 19.7999 20.808C19.7999 20.568 19.8959 20.304 20.0879 20.136C20.2799 19.92 20.5199 19.824 20.7839 19.824ZM19.8239 19.128C19.6799 19.2 19.5359 19.32 19.4159 19.44C19.2959 19.56 19.1999 19.68 19.1279 19.824L17.3279 18.816L18.8159 17.328L19.8239 19.128ZM18.2399 16.536L16.5359 18.24L15.5279 17.232L17.2319 15.528L18.2399 16.536ZM17.0399 14.328L16.0319 15.36L2.9279 2.25601H4.9679L17.0399 14.328ZM21.7439 4.96801L15.3839 11.328L14.3759 10.32L21.7439 2.95201V4.96801Z" fill="black"/>
</svg>
